<?xml version="1.0" ?><!-- Uploaded to: SVG Repo, www.svgrepo.com, Generator: SVG Repo Mixer Tools -->
<svg width="800px" height="800px" viewBox="0 0 120 120" id="svg4254" version="1.1" xmlns="http://www.w3.org/2000/svg" xmlns:cc="http://creativecommons.org/ns#" xmlns:dc="http://purl.org/dc/elements/1.1/" xmlns:rdf="http://www.w3.org/1999/02/22-rdf-syntax-ns#" xmlns:svg="http://www.w3.org/2000/svg"><defs id="defs4256"/><path d="M 112.61327,59.999999 A 52.613276,52.613281 0 0 1 59.999998,112.61328 52.613276,52.613281 0 0 1 7.3867209,59.999999 52.613276,52.613281 0 0 1 59.999998,7.3867179 52.613276,52.613281 0 0 1 112.61327,59.999999 Z" id="circle15778" style="opacity:1;fill:#80deea;fill-opacity:1;stroke:none;stroke-width:6.9000001;stroke-linecap:round;stroke-linejoin:miter;stroke-miterlimit:4;stroke-dasharray:none;stroke-dashoffset:0;stroke-opacity:1"/><path d="m 99.127192,57.102031 c -0.757209,0 -1.366802,0.609593 -1.366802,1.366802 l 0,13.247472 c 0,0.757208 0.609593,1.366802 1.366802,1.366802 0.757208,0 1.366798,-0.609594 1.366798,-1.366802 l 0,-13.247472 c 0,-0.757209 -0.60959,-1.366802 -1.366798,-1.366802 z" id="rect15780" style="opacity:1;fill:#00695c;fill-opacity:1;stroke:none;stroke-width:6.9000001;stroke-linecap:round;stroke-linejoin:miter;stroke-miterlimit:4;stroke-dasharray:none;stroke-dashoffset:0;stroke-opacity:1"/><path d="m 35.744459,62.302677 c -2.690946,0.01802 -5.672716,0.932358 -9.624317,3.45466 -6.853377,4.374478 -12.706201,6.683075 -16.9088523,7.90368 A 52.613278,52.613281 0 0 0 59.999812,112.61333 52.613278,52.613281 0 0 0 110.86319,73.199014 c -3.1815,1.493878 -6.27738,3.367781 -8.81283,5.711632 C 92.454413,87.781353 82.021508,67.550808 61.992588,67.849741 47.596803,68.064588 42.621315,62.256739 35.744459,62.302677 Z" id="path15782" style="fill:#ffb300;fill-rule:evenodd;stroke:none;stroke-width:1px;stroke-linecap:butt;stroke-linejoin:miter;stroke-opacity:1"/><path d="m 94.754931,61.683935 c 0,0.757209 0.609595,1.366803 1.366804,1.366803 l 2.313051,0 c 0.757209,0 1.366802,-0.609594 1.366802,-1.366803 0,-0.757208 -0.609593,-1.366802 -1.366802,-1.366802 l -2.313051,0 c -0.757209,0 -1.366804,0.609594 -1.366804,1.366802 z" id="rect15784" style="opacity:1;fill:#00695c;fill-opacity:1;stroke:none;stroke-width:6.9000001;stroke-linecap:round;stroke-linejoin:miter;stroke-miterlimit:4;stroke-dasharray:none;stroke-dashoffset:0;stroke-opacity:1"/><path d="m 106.22742,63.772579 c 0.48286,0 0.87159,0.388728 0.87159,0.871587 l 0,8.447686 c 0,0.482859 -0.38873,0.871587 -0.87159,0.871587 -0.48285,0 -0.87158,-0.388728 -0.87158,-0.871587 l 0,-8.447686 c 0,-0.482859 0.38873,-0.871587 0.87158,-0.871587 z" id="rect15786" style="opacity:1;fill:#004d40;fill-opacity:1;stroke:none;stroke-width:6.9000001;stroke-linecap:round;stroke-linejoin:miter;stroke-miterlimit:4;stroke-dasharray:none;stroke-dashoffset:0;stroke-opacity:1"/><path d="m 84.33002,62.302677 c 2.690947,0.01802 5.672717,0.932358 9.624318,3.45466 6.853372,4.374478 12.706202,6.683075 16.908852,7.90368 A 52.613278,52.613281 0 0 1 60.074668,112.61333 52.613278,52.613281 0 0 1 9.2112897,73.199014 c 3.1815023,1.493878 6.2773783,3.367781 8.8128293,5.711632 9.595947,8.870707 20.028852,-11.359838 40.057773,-11.060905 14.395784,0.214847 19.371274,-5.593002 26.248128,-5.547064 z" id="path15788" style="fill:#ffa000;fill-rule:evenodd;stroke:none;stroke-width:1px;stroke-linecap:butt;stroke-linejoin:miter;stroke-opacity:1"/><path d="m 109.01553,66.694352 c 0,0.482859 -0.38873,0.871586 -0.87159,0.871586 l -1.47499,0 c -0.48286,0 -0.87158,-0.388727 -0.87158,-0.871586 0,-0.482859 0.38872,-0.871587 0.87158,-0.871587 l 1.47499,0 c 0.48286,0 0.87159,0.388728 0.87159,0.871587 z" id="rect15792" style="opacity:1;fill:#004d40;fill-opacity:1;stroke:none;stroke-width:6.9000001;stroke-linecap:round;stroke-linejoin:miter;stroke-miterlimit:4;stroke-dasharray:none;stroke-dashoffset:0;stroke-opacity:1"/><path d="m 106.76952,68.739178 c 0,0.482859 -0.38873,0.871586 -0.87158,0.871586 l -1.475,0 c -0.48286,0 -0.87158,-0.388727 -0.87158,-0.871586 0,-0.482859 0.38872,-0.871587 0.87158,-0.871587 l 1.475,0 c 0.48285,0 0.87158,0.388728 0.87158,0.871587 z" id="rect15794" style="opacity:1;fill:#004d40;fill-opacity:1;stroke:none;stroke-width:6.9000001;stroke-linecap:round;stroke-linejoin:miter;stroke-miterlimit:4;stroke-dasharray:none;stroke-dashoffset:0;stroke-opacity:1"/><path d="m 89.397546,39.951021 a 6.792181,6.7921816 0 0 1 -6.792181,6.792181 6.792181,6.7921816 0 0 1 -6.792182,-6.792181 6.792181,6.7921816 0 0 1 6.792182,-6.792182 6.792181,6.7921816 0 0 1 6.792181,6.792182 z" id="circle15796" style="opacity:1;fill:#fff59d;fill-opacity:1;stroke:none;stroke-width:6.9000001;stroke-linecap:round;stroke-linejoin:miter;stroke-miterlimit:4;stroke-dasharray:none;stroke-dashoffset:0;stroke-opacity:1"/></svg>